<?xml version="1.0" encoding="utf-8"?>
<!-- Generator: Adobe Illustrator 21.0.1, SVG Export Plug-In . SVG Version: 6.00 Build 0)  -->
<svg version="1.1" id="Livello_1" xmlns="http://www.w3.org/2000/svg" xmlns:xlink="http://www.w3.org/1999/xlink" x="0px" y="0px"
	 viewBox="0 0 147.4 34" style="enable-background:new 0 0 147.4 34;" xml:space="preserve">
<style type="text/css">
	.st0{fill:#3363AC;}
	.st1{fill:#29B8CE;}
</style>
<path class="st0" d="M38.4,25.4c-1.8,0-3.3-1.5-3.3-3.3c0-1.8,1.5-3.3,3.3-3.3c1.8,0,3.3,1.5,3.3,3.3C41.7,23.9,40.2,25.4,38.4,25.4
	 M38.4,15.2c-3.8,0-6.9,3.1-6.9,6.9c0,3.8,3.1,6.9,6.9,6.9c3.8,0,6.9-3.1,6.9-6.9C45.3,18.3,42.2,15.2,38.4,15.2"/>
<path class="st0" d="M53.1,15.2c-3.5,0.2-6.3,2.9-6.6,6.5c0,0,0,0.1,0,0.1l0,0.3c0,0,0,0,0,0c0,0.3,0,4.4,0,6.1v0.4
	c0,0.1,0,0.2,0.1,0.3c0.1,0.1,0.2,0.1,0.3,0.1h2.9c0.2,0,0.4-0.2,0.4-0.4V22c0.1-1.7,1.4-3,3.1-3.2c0.2,0,0.3-0.2,0.3-0.4v-2.9
	c0-0.1,0-0.2-0.1-0.3C53.3,15.2,53.2,15.2,53.1,15.2"/>
<path class="st0" d="M23.4,25.4c-1.8,0-3.3-1.5-3.3-3.3c0-1.8,1.5-3.3,3.3-3.3c1.8,0,3.3,1.5,3.3,3.3C26.7,23.9,25.2,25.4,23.4,25.4
	 M23.4,15.2c-1.8,0-3.6,0.7-4.9,2c-1.3,1.3-2,3-2,4.9v10.1c0,0.2,0.2,0.4,0.4,0.4h2.9c0.2,0,0.4-0.2,0.4-0.4v-4.1
	c1,0.5,2.1,0.8,3.3,0.8c3.8,0,6.9-3.1,6.9-6.9C30.3,18.3,27.2,15.2,23.4,15.2"/>
<path class="st0" d="M61.3,15.2h-3v-3.2c0-0.2-0.2-0.4-0.4-0.4H55c-0.2,0-0.4,0.2-0.4,0.4v10c0,0.1,0,0.4,0,0.5
	c0.3,3.5,3.1,6.2,6.6,6.5c0,0,0,0,0,0c0.1,0,0.2,0,0.3-0.1c0.1-0.1,0.1-0.2,0.1-0.3v-2.9c0-0.2-0.1-0.3-0.3-0.4
	c-1.7-0.2-3-1.6-3.1-3.2v-3.3h3c0.2,0,0.4-0.2,0.4-0.4v-2.9C61.7,15.3,61.5,15.2,61.3,15.2"/>
<path class="st0" d="M14.9,13.5c-0.8-1.2-2.2-2-3.7-2c-2,0-3.8,1.4-4.3,3.4c-0.1,0.4-0.1,0.7-0.1,1.1c0,0.2,0,0.5,0.1,0.8
	c0,0,0,0.1,0,0.2c0.3,1.5,1.5,2.8,3,3.3c0,0,0.1,0,0.1,0c0.2,0.1,0.5,0.2,0.7,0.3c0.6,0.4,0.9,1,1.1,1.7c0,0.2,0,0.3,0,0.5
	c0,1.4-1.2,2.6-2.6,2.6c-1.3,0-2.4-0.9-2.6-2.2c0-0.2,0-0.3,0-0.4c0-0.3,0-0.6,0.1-0.9c0-0.1,0-0.3-0.1-0.4
	c-0.1-0.1-0.2-0.1-0.3-0.1l-3,0.5c-0.2,0-0.3,0.2-0.3,0.3c0,0.2,0,0.3,0,0.5c0,0.3,0,0.7,0.1,1.1C3.4,26.8,6,29,9.1,29
	c3.4,0,6.2-2.8,6.2-6.2c0-0.4,0-0.7-0.1-1.1c-0.1-0.6-0.3-1.2-0.6-1.7c-0.1-0.3-0.3-0.5-0.4-0.7c-0.8-1.1-1.9-2-3.2-2.4
	c-0.1,0-0.1,0-0.2-0.1c-0.3-0.1-0.4-0.3-0.5-0.6c0,0,0-0.1,0-0.1c0-0.5,0.4-0.8,0.8-0.8c0.3,0,0.6,0.2,0.7,0.4
	c0.1,0.1,0.2,0.2,0.4,0.2l2.9-0.5c0.1,0,0.2-0.1,0.2-0.2s0.1-0.2,0-0.3C15.3,14.4,15.1,13.9,14.9,13.5"/>
<path class="st0" d="M93.3,25.4c-1.8,0-3.3-1.5-3.3-3.3c0-1.8,1.5-3.3,3.3-3.3c1.8,0,3.3,1.5,3.3,3.3C96.5,23.9,95.1,25.4,93.3,25.4
	 M93.3,15.2c-1.1,0-2.3,0.3-3.3,0.8v-4c0-0.2-0.2-0.4-0.4-0.4h-2.9c-0.2,0-0.4,0.2-0.4,0.4l0,9.7l0,0.5c0,3.8,3.1,6.9,6.9,6.9
	c3.8,0,6.9-3.1,6.9-6.9C100.2,18.3,97.1,15.2,93.3,15.2"/>
<path class="st0" d="M108.2,25.4c-1.8,0-3.3-1.5-3.3-3.3c0-1.8,1.5-3.3,3.3-3.3c1.8,0,3.3,1.5,3.3,3.3
	C111.5,23.9,110.1,25.4,108.2,25.4 M108.2,15.2c-3.8,0-6.9,3.1-6.9,6.9c0,3.8,3.1,6.9,6.9,6.9c3.8,0,6.9-3.1,6.9-6.9
	C115.1,18.3,112,15.2,108.2,15.2"/>
<path class="st0" d="M123.2,25.4c-1.8,0-3.3-1.5-3.3-3.3c0-1.8,1.5-3.3,3.3-3.3c1.8,0,3.3,1.5,3.3,3.3
	C126.5,23.9,125,25.4,123.2,25.4 M123.2,15.2c-3.8,0-6.9,3.1-6.9,6.9c0,3.8,3.1,6.9,6.9,6.9c3.8,0,6.9-3.1,6.9-6.9
	C130.1,18.3,127,15.2,123.2,15.2"/>
<path class="st0" d="M144.5,28.3l-7-7l5.6-5.6c0.1-0.1,0.1-0.3,0.1-0.4c-0.1-0.1-0.2-0.2-0.3-0.2h-4.1c-0.1,0-0.2,0-0.3,0.1
	l-3.5,3.5v-6.9c0-0.2-0.2-0.4-0.4-0.4h-2.9c-0.1,0-0.2,0-0.3,0.1c-0.1,0.1-0.1,0.2-0.1,0.3v16.7c0,0.1,0,0.2,0.1,0.3
	c0.1,0.1,0.2,0.1,0.3,0.1l2.9,0c0.2,0,0.4-0.2,0.4-0.4v-4.7l4.9,4.9c0.1,0.1,0.2,0.1,0.3,0.1h4.1c0.2,0,0.3-0.1,0.3-0.2
	C144.6,28.6,144.6,28.4,144.5,28.3"/>
<path class="st0" d="M79.3,28.1c0,0.5-2.4,0.8-5.3,0.8c-2.9,0-5.3-0.4-5.3-0.8c0-0.5,2.4-0.8,5.3-0.8C77,27.3,79.3,27.7,79.3,28.1"
	/>
<path class="st0" d="M83.2,2.8c0.3-0.4,0.1-1-0.3-1.3c-0.4-0.3-1-0.1-1.3,0.3c0,0.1-0.1,0.2-0.1,0.2l0,0l0,0.1c0,0,0,0,0,0L81,4.7
	l1.9-1.6c0,0,0,0,0,0l0,0l0,0C83.1,2.9,83.2,2.9,83.2,2.8"/>
<path class="st0" d="M86.2,3.5C86,3,85.5,2.8,85,2.9C84.9,3,84.8,3,84.8,3l0,0l-0.1,0.1c0,0,0,0,0,0l-2,1.6l2.5,0c0,0,0.1,0,0.1,0h0
	l0,0c0.1,0,0.2,0,0.3-0.1C86.1,4.5,86.3,3.9,86.2,3.5"/>
<path class="st1" d="M76.2,8.3c-0.5,0.2-1,0.4-1.5,0.6c0,0,0,0-0.1,0c-0.6,0.4-1.1,0.7-1.7,0.9c0.5,1.3,1.2,4.2,0.8,6.6
	c0,0.1,0,0.1,0,0.2c-0.1,1.3-0.5,2.6-0.9,3.3c0.4,0.1,0.8,0.3,1.2,0.4c0.8,0.3,1.5,0.5,2.3,0.7c0.6-1.5,0.9-3.2,1-4.2
	C77.7,14,77,10.4,76.2,8.3"/>
<path class="st1" d="M68.9,21.9l8.9,3.3c0.2,0.1,0.4,0,0.5-0.2l0.2-0.7c0.1-0.2,0-0.4-0.2-0.5l-8.9-3.3c-0.2-0.1-0.4,0-0.5,0.2
	l-0.2,0.7C68.6,21.6,68.7,21.8,68.9,21.9"/>
<path class="st1" d="M69.7,19.9l8.9,3.3c0.2,0.1,0.4,0,0.5-0.2l0.2-0.7c0.1-0.2,0-0.4-0.2-0.5l-8.9-3.3c-0.2-0.1-0.4,0-0.5,0.2
	l-0.2,0.7C69.4,19.6,69.5,19.8,69.7,19.9"/>
<path class="st1" d="M70.2,11.4l8.9-3.3c0.2-0.1,0.3-0.3,0.2-0.5L79.1,7c-0.1-0.2-0.3-0.3-0.5-0.2l-9,3.3c-0.2,0.1-0.3,0.3-0.2,0.5
	l0.2,0.7C69.7,11.4,70,11.5,70.2,11.4"/>
<path class="st1" d="M69.4,9.4l8.9-3.3c0.2-0.1,0.3-0.3,0.2-0.5L78.3,5c-0.1-0.2-0.3-0.3-0.5-0.2L68.9,8c-0.2,0.1-0.3,0.3-0.2,0.5
	l0.2,0.7C69,9.3,69.2,9.4,69.4,9.4"/>
</svg>
